<svg style="position: absolute; width: 0; height: 0; overflow: hidden;" version="1.1" xmlns="http://www.w3.org/2000/svg"
	 xmlns:xlink="http://www.w3.org/1999/xlink">
	<symbol id="icon-screen-broken-yes" viewBox="0 0 31 54">
		<g fill="none" fill-rule="evenodd" stroke="#0161C7" stroke-linecap="round" stroke-linejoin="round"
		   stroke-width="1.75" transform="translate(.59 .892)">
			<path d="M11.7638889,48.3082972 L18.0052648,48.3082972"/>
			<polyline points="9.512 4.132 15.826 12.737 8.343 20.179 14.656 25.064 9.512 32.97 12.786 39.948"/>
			<polyline points="14.656 25.064 20.501 26.692 21.904 33.901"/>
			<path d="M23.8767988,51.6139776 L5.89266838,51.6139776 C3.30581325,51.6139776 1.18929541,49.5086473 1.18929541,46.9354659 L1.18929541,5.58522075 C1.18929541,3.01203936 3.30581325,0.906709137 5.89266838,0.906709137 L23.8767988,0.906709137 C26.463654,0.906709137 28.5801718,3.01203936 28.5801718,5.58522075 L28.5801718,46.9354659 C28.5801718,49.5086473 26.463654,51.6139776 23.8767988,51.6139776 L23.8767988,51.6139776 Z"/>
		</g>
	</symbol>
	<symbol id="icon-screen-broken-no" viewBox="0 0 30 53">
		<path fill="none" stroke="#0161C7" stroke-linecap="round" stroke-linejoin="round" stroke-width="1.75"
			  d="M10.9568755 47.4613311L17.1907122 47.4613311M23.0551538 50.7630184L5.09274709 50.7630184C2.50901672 50.7630184.395055507 48.6602312.395055507 46.0901581L.395055507 4.78986149C.395055507 2.21978834 2.50901672.117001226 5.09274709.117001226L23.0551538.117001226C25.6388842.117001226 27.7528454 2.21978834 27.7528454 4.78986149L27.7528454 46.0901581C27.7528454 48.6602312 25.6388842 50.7630184 23.0551538 50.7630184L23.0551538 50.7630184z"
			  transform="translate(.767 1.296)"/>
	</symbol>
	<symbol id="icon-screen-multi-issue" viewBox="0 0 66 47">
		<g fill="none" fill-rule="evenodd" stroke="#0161C7" stroke-linecap="round" stroke-linejoin="round"
		   stroke-width="1.75" transform="translate(.998 .878)">
			<path fill="#FFF"
				  d="M38.7240929,2.09857089 L63.4347343,39.7709264 C64.4658667,41.3429287 64.0675071,43.4803454 62.5449733,44.5449802 C61.9938665,44.9303427 61.3435432,45.1363169 60.677943,45.1363169 L11.2566601,45.1363169 C9.41781724,45.1363169 7.92714055,43.5972068 7.92714055,41.6986182 C7.92714055,41.0113921 8.12663306,40.3399391 8.4998688,39.7709264 L33.2105102,2.09857089 C34.2416426,0.526568591 36.311798,0.115265955 37.8343319,1.17990074 C38.1847764,1.42494975 38.4867552,1.73674014 38.7240929,2.09857089 Z"/>
			<path fill="#FFF"
				  d="M35.0128731,2.09857089 L59.7235146,39.7709264 C60.7546469,41.3429287 60.3562874,43.4803454 58.8337536,44.5449802 C58.2826468,44.9303427 57.6323234,45.1363169 56.9667232,45.1363169 L7.5454404,45.1363169 C5.70659751,45.1363169 4.21592083,43.5972068 4.21592083,41.6986182 C4.21592083,41.0113921 4.41541333,40.3399391 4.78864907,39.7709264 L29.4992905,2.09857089 C30.5304229,0.526568591 32.6005783,0.115265955 34.1231121,1.17990074 C34.4735566,1.42494975 34.7755354,1.73674014 35.0128731,2.09857089 Z"/>
			<path fill="#FFF"
				  d="M31.3951731,2.09857089 L56.1058145,39.7709264 C57.1369469,41.3429287 56.7385873,43.4803454 55.2160535,44.5449802 C54.6649467,44.9303427 54.0146234,45.1363169 53.3490232,45.1363169 L3.92774033,45.1363169 C2.08889745,45.1363169 0.598220759,43.5972068 0.598220759,41.6986182 C0.598220759,41.0113921 0.797713264,40.3399391 1.17094901,39.7709264 L25.8815904,2.09857089 C26.9127228,0.526568591 28.9828783,0.115265955 30.5054121,1.17990074 C30.8558566,1.42494975 31.1578354,1.73674014 31.3951731,2.09857089 Z"/>
			<path d="M28.6383818,13.2041091 L28.6385476,30.6903372"/>
			<ellipse cx="28.638" cy="37.664" rx="1.6" ry="1.652"/>
		</g>
	</symbol>
</svg>
