<svg style="position: absolute; width: 0; height: 0; overflow: hidden;" version="1.1" xmlns="http://www.w3.org/2000/svg"
>
	<symbol id="icon-screen-broken-yes" viewBox="0 0 31 54">
		<g fill="none" fill-rule="evenodd" stroke="#0161C7" stroke-linecap="round" stroke-linejoin="round"
		   stroke-width="1.75" transform="translate(.59 .892)">
			<path d="M11.7638889,48.3082972 L18.0052648,48.3082972"/>
			<polyline points="9.512 4.132 15.826 12.737 8.343 20.179 14.656 25.064 9.512 32.97 12.786 39.948"/>
			<polyline points="14.656 25.064 20.501 26.692 21.904 33.901"/>
			<path d="M23.8767988,51.6139776 L5.89266838,51.6139776 C3.30581325,51.6139776 1.18929541,49.5086473 1.18929541,46.9354659 L1.18929541,5.58522075 C1.18929541,3.01203936 3.30581325,0.906709137 5.89266838,0.906709137 L23.8767988,0.906709137 C26.463654,0.906709137 28.5801718,3.01203936 28.5801718,5.58522075 L28.5801718,46.9354659 C28.5801718,49.5086473 26.463654,51.6139776 23.8767988,51.6139776 L23.8767988,51.6139776 Z"/>
		</g>
	</symbol>
	<symbol id="icon-screen-broken-no" viewBox="0 0 30 53">
		<path fill="none" stroke="#0161C7" stroke-linecap="round" stroke-linejoin="round" stroke-width="1.75"
			  d="M10.9568755 47.4613311L17.1907122 47.4613311M23.0551538 50.7630184L5.09274709 50.7630184C2.50901672 50.7630184.395055507 48.6602312.395055507 46.0901581L.395055507 4.78986149C.395055507 2.21978834 2.50901672.117001226 5.09274709.117001226L23.0551538.117001226C25.6388842.117001226 27.7528454 2.21978834 27.7528454 4.78986149L27.7528454 46.0901581C27.7528454 48.6602312 25.6388842 50.7630184 23.0551538 50.7630184L23.0551538 50.7630184z"
			  transform="translate(.767 1.296)"/>
	</symbol>
	<symbol id="icon-screen-multi-issue" viewBox="0 0 66 47">
		<g fill="none" fill-rule="evenodd" stroke="#0161C7" stroke-linecap="round" stroke-linejoin="round"
		   stroke-width="1.75" transform="translate(.998 .878)">
			<path fill="#FFF"
				  d="M38.7240929,2.09857089 L63.4347343,39.7709264 C64.4658667,41.3429287 64.0675071,43.4803454 62.5449733,44.5449802 C61.9938665,44.9303427 61.3435432,45.1363169 60.677943,45.1363169 L11.2566601,45.1363169 C9.41781724,45.1363169 7.92714055,43.5972068 7.92714055,41.6986182 C7.92714055,41.0113921 8.12663306,40.3399391 8.4998688,39.7709264 L33.2105102,2.09857089 C34.2416426,0.526568591 36.311798,0.115265955 37.8343319,1.17990074 C38.1847764,1.42494975 38.4867552,1.73674014 38.7240929,2.09857089 Z"/>
			<path fill="#FFF"
				  d="M35.0128731,2.09857089 L59.7235146,39.7709264 C60.7546469,41.3429287 60.3562874,43.4803454 58.8337536,44.5449802 C58.2826468,44.9303427 57.6323234,45.1363169 56.9667232,45.1363169 L7.5454404,45.1363169 C5.70659751,45.1363169 4.21592083,43.5972068 4.21592083,41.6986182 C4.21592083,41.0113921 4.41541333,40.3399391 4.78864907,39.7709264 L29.4992905,2.09857089 C30.5304229,0.526568591 32.6005783,0.115265955 34.1231121,1.17990074 C34.4735566,1.42494975 34.7755354,1.73674014 35.0128731,2.09857089 Z"/>
			<path fill="#FFF"
				  d="M31.3951731,2.09857089 L56.1058145,39.7709264 C57.1369469,41.3429287 56.7385873,43.4803454 55.2160535,44.5449802 C54.6649467,44.9303427 54.0146234,45.1363169 53.3490232,45.1363169 L3.92774033,45.1363169 C2.08889745,45.1363169 0.598220759,43.5972068 0.598220759,41.6986182 C0.598220759,41.0113921 0.797713264,40.3399391 1.17094901,39.7709264 L25.8815904,2.09857089 C26.9127228,0.526568591 28.9828783,0.115265955 30.5054121,1.17990074 C30.8558566,1.42494975 31.1578354,1.73674014 31.3951731,2.09857089 Z"/>
			<path d="M28.6383818,13.2041091 L28.6385476,30.6903372"/>
			<ellipse cx="28.638" cy="37.664" rx="1.6" ry="1.652"/>
		</g>
	</symbol>
	<symbol id="icon-phone" viewBox="0 0 20 20">
		<defs>
			<linearGradient x1="100%" y1="50%" x2="21.9573333%" y2="50%" id="linearGradient-1">
				<stop stop-color="#12FFCD" stop-opacity="0.329710145" offset="0%"/>
				<stop stop-color="#12FFCD" stop-opacity="0" offset="100%"/>
			</linearGradient>
		</defs>
		<g id="phone_20x20_icn" stroke="none" stroke-width="1" fill="none" fill-rule="evenodd">
			<g id="phone_icn">
				<rect id="grid" x="0" y="0" width="20" height="20"/>
				<path d="M15,18.6913339 L15,2.30866612 C15,1.58602069 14.403388,1 13.6670867,1 L5.33291326,1 C4.59714514,1 4,1.58602069 4,2.30866612 L4,18.6913339 C4,19.4139793 4.59714514,20 5.33291326,20 L13.6670867,20 C14.403388,20 15,19.4139793 15,18.6913339"
					  id="Fill-1" fill-opacity="0.6" fill="url(#linearGradient-1)"/>
				<path d="M15.5,17.760211 C15.5,18.7185069 14.7362934,19.5 13.7882607,19.5 L6.21173933,19.5 C5.26405564,19.5 4.5,18.7183658 4.5,17.760211 L4.5,2.23978896 C4.5,1.28163421 5.26405564,0.5 6.21173933,0.5 L13.7882607,0.5 C14.7362934,0.5 15.5,1.28149307 15.5,2.23978896 L15.5,17.760211 Z"
					  id="Stroke-3" stroke="#0161C7" stroke-linecap="round"
					  stroke-linejoin="round"/>
				<path d="M8,3.5 L11,3.5" id="Stroke-5" stroke="#595959" stroke-width="0.520000041"
					  stroke-linecap="round" stroke-linejoin="round"/>
				<rect id="line" fill="#0161C7" x="7" y="3" width="6" height="1"/>
				<rect id="line" fill="#0161C7" x="7" y="16" width="6" height="1"/>
			</g>
		</g>
	</symbol>
	<symbol id="icon-pen" viewBox="0 0 12 11">
		<g id="icons" stroke="none" stroke-width="1" fill="none" fill-rule="evenodd"
		   transform="translate(-69.000000, -75.000000)">
			<g id="edit"
			   transform="translate(74.207664, 81.292336) rotate(-315.000000) translate(-74.207664, -81.292336) translate(71.707664, 74.292336)"
			   fill="currentColor">
				<path d="M4.67241444,10.5129325 L2.98743926,13.0641555 C2.75916274,13.4097892 2.29391652,13.5049261 1.94828275,13.2766496 C1.86673107,13.2227881 1.79649272,13.1535068 1.74151762,13.0727016 L-1.10134124e-13,10.5129325 L-1.09690035e-13,1 C-1.0975767e-13,0.44771525 0.44771525,1.08015131e-13 1,1.07913678e-13 L3.67241444,1.07913678e-13 C4.22469919,1.07812225e-13 4.67241444,0.44771525 4.67241444,1 L4.67241444,10.5129325 Z"
					  id="Combined-Shape"/>
			</g>
		</g>
	</symbol>
	<symbol id="icon-clock" viewBox="0 0 20 20">
		<defs>
			<linearGradient x1="100%" y1="50%" x2="21.9573333%" y2="50%" id="linearGradient-1">
				<stop stop-color="#12FFCD" stop-opacity="0.329710145" offset="0%"/>
				<stop stop-color="#12FFCD" stop-opacity="0" offset="100%"/>
			</linearGradient>
		</defs>
		<g id="Clock_20x20_icn" stroke="none" stroke-width="1" fill="none" fill-rule="evenodd">
			<g>
				<rect id="grid" x="0" y="0" width="20" height="20"/>
				<path d="M3,11 C3,14.8658717 6.13412835,18 10,18 C13.8658717,18 17,14.8658717 17,11 C17,7.13412835 13.8658717,4 10,4 C6.13412835,4 3,7.13412835 3,11"
					  id="Fill" fill-opacity="0.6" fill="url(#linearGradient-1)"/>
				<path d="M2.5,11 C2.5,6.85798597 5.85798597,3.5 10,3.5 C14.142014,3.5 17.5,6.85798597 17.5,11 C17.5,15.142014 14.142014,18.5 10,18.5 C5.85798597,18.5 2.5,15.142014 2.5,11 Z"
					  id="Stroke" stroke="#0161C7" stroke-linecap="round"
					  stroke-linejoin="round"/>
				<rect id="line" fill="#0161C7" x="7" y="1" width="6" height="1"/>
				<rect id="line" fill="#0161C7" x="9" y="11" width="6" height="1"/>
				<rect id="line" fill="#0161C7"
					  transform="translate(9.500000, 9.000000) rotate(-90.000000) translate(-9.500000, -9.000000) "
					  x="6.5" y="8.5" width="6" height="1"/>
			</g>
		</g>
	</symbol>
	<symbol id="icon-map" viewBox="0 0 20 20">
		<defs>
			<linearGradient x1="100%" y1="50%" x2="21.9573333%" y2="50%" id="linearGradient-1">
				<stop stop-color="#12FFCD" stop-opacity="0.329710145" offset="0%"/>
				<stop stop-color="#12FFCD" stop-opacity="0" offset="100%"/>
			</linearGradient>
		</defs>
		<g id="Location_20x20_icn" stroke="none" stroke-width="1" fill="none"
		   fill-rule="evenodd">
			<g>
				<rect id="grid" x="0" y="0" width="20" height="20"/>
				<path d="M9.98621629,1 C5.57478864,1 2,4.46474089 2,8.671613 C2,14.8630361 9.55218977,19.6961303 9.87370277,19.9561425 C9.91024562,19.9855897 9.95480226,20 10,20 C10.0448772,20 10.0897544,19.9855897 10.1262972,19.9561425 C10.4474897,19.6961303 18,14.6033371 18,8.671613 C18,4.46474089 14.3973234,1 9.98621629,1"
					  id="Fill-1" fill-opacity="0.6" fill="url(#linearGradient-1)"/>
				<path d="M7,8 C7,9.65675 8.343,11 10,11 C11.65675,11 13,9.65675 13,8 C13,6.34325 11.65675,5 10,5 C8.343,5 7,6.34325 7,8"
					  id="Fill-5" fill-opacity="0.6" fill="url(#linearGradient-1)"/>
				<path d="M9.9973922,19.4335133 C10.2738434,19.2285863 10.7879571,18.8412153 11.1304775,18.566531 C12.0175707,17.8551264 12.8853775,17.0753294 13.6966172,16.2275152 C16.0825881,13.7339738 17.5,11.1660451 17.5,8.671613 C17.5,4.74023364 14.1200746,1.5 9.98621629,1.5 C5.8578659,1.5 2.5,4.73452704 2.5,8.671613 C2.5,11.2824917 3.91558327,13.8692529 6.3004586,16.3198373 C7.10991212,17.1515932 7.97534479,17.9088646 8.86288635,18.5966083 C9.20687876,18.8631632 9.72120458,19.236143 9.9973922,19.4335133 Z"
					  id="Stroke-3" stroke="#0161C7"/>
				<path d="M7.5,8 C7.5,9.38070041 8.61923516,10.5 10,10.5 C11.3806076,10.5 12.5,9.38060763 12.5,8 C12.5,6.61939237 11.3806076,5.5 10,5.5 C8.61923516,5.5 7.5,6.61929959 7.5,8 Z"
					  id="Stroke-7" stroke="#0161C7"/>
			</g>
		</g>
	</symbol>
	<symbol id="icon-contact" viewBox="0 0 20 20">
		<defs>
			<linearGradient x1="100%" y1="50%" x2="21.9573333%" y2="50%" id="linearGradient-1">
				<stop stop-color="#12FFCD" stop-opacity="0.329710145" offset="0%"/>
				<stop stop-color="#12FFCD" stop-opacity="0" offset="100%"/>
			</linearGradient>
		</defs>
		<g id="Contact_20x20_icn" stroke="none" stroke-width="1" fill="none" fill-rule="evenodd">
			<path d="M16.7303021,19 L3.27005684,19 C2.02123841,19 1,17.978423 1,16.7299884 L1,3.27001157 C1,2.021577 2.02123841,1 3.27005684,1 L16.7303021,1 C17.9787616,1 19,2.021577 19,3.27001157 L19,16.7299884 C19,17.978423 17.9787616,19 16.7303021,19 Z"
				  id="Fill" fill-opacity="0.6" fill="url(#linearGradient-1)"/>
			<path d="M16.7303021,19.5 L3.27005684,19.5 C1.74520983,19.5 0.5,18.2546792 0.5,16.7299884 L0.5,3.27001157 C0.5,1.74532081 1.74520983,0.5 3.27005684,0.5 L16.7303021,0.5 C18.2548581,0.5 19.5,1.74538871 19.5,3.27001157 L19.5,16.7299884 C19.5,18.2546113 18.2548581,19.5 16.7303021,19.5 Z"
				  id="Stroke" stroke="#0161C7" stroke-linecap="round"
				  stroke-linejoin="round"/>
			<path d="M6.5,7.00019622 C6.5,5.06717635 8.06717635,3.5 10.0001962,3.5 C11.9328944,3.5 13.5,5.06724715 13.5,7.00019622 C13.5,8.93309067 11.9329491,10.5 10.0001962,10.5 C8.06712171,10.5 6.5,8.93316147 6.5,7.00019622 Z"
				  id="Stroke" stroke="#0161C7" stroke-linecap="round"
				  stroke-linejoin="round"/>
			<path d="M15,16 C15,12.8488233 12.5911826,10.5 9.89017395,10.5 C7.18916531,10.5 5,12.8488233 5,16"
				  id="Stroke" stroke="#0161C7" opacity="0.900000036" stroke-linecap="round"
				  stroke-linejoin="round"/>
		</g>
	</symbol>
	<symbol id="icon-success" viewBox="0 0 55 55">
		<g id="Design" stroke="none" stroke-width="1" fill="none" fill-rule="evenodd">
			<g id="mobile_05" transform="translate(-160.000000, -210.000000)" stroke="#0161C7" stroke-width="3">
				<g id="Group-2-Copy" transform="translate(162.007812, 212.464844)">
					<polyline id="Path-3" stroke-linecap="round" stroke-linejoin="round"
							  points="17.4545011 25.3087835 23.2098479 31.0509049 33.7451743 21.0233918"/>
					<circle id="Oval-1" cx="25.4921875" cy="25.4921875" r="25.4921875"/>
				</g>
			</g>
		</g>
	</symbol>
	<symbol id="icon-envelope" viewBox="0 0 28 18">
		<g id="8--thank-you-page" stroke="none" stroke-width="1" fill="none" fill-rule="evenodd"
		   transform="translate(-290.000000, -536.000000)">
			<g id="Group-3" transform="translate(290.000000, 536.000000)" stroke="#0161C7" stroke-width="2">
				<rect id="Rectangle-12-Copy" x="1" y="1" width="26" height="16" rx="3"/>
				<path d="M2,2 L12.6488679,10.5553159 C13.3805116,11.1431195 14.4224665,11.1431195 15.1541102,10.5553159 L25.8029781,2"
					  id="Path-8-Copy"/>
			</g>
		</g>
	</symbol>
	<symbol id="icon-check" viewBox="0 0 23 15">
		<g id="8--thank-you-page" stroke="none" stroke-width="1" fill="none" fill-rule="evenodd"
		   transform="translate(-290.000000, -295.000000)" stroke-linecap="round" stroke-linejoin="round">
			<polyline id="Path-3-Copy" stroke="#0161C7" stroke-width="2"
					  points="291 301.379395 298.224609 308.587402 311.449463 296"/>
		</g>
	</symbol>
	<symbol id="icon-location" viewBox="0 0 19 26">
		<g id="TV-mounting---desktop" stroke="none" stroke-width="1" fill="none" fill-rule="evenodd">
			<g id="8--thank-you-page" transform="translate(-290.000000, -479.000000)">
				<g id="2" transform="translate(249.000000, 430.000000)">
					<g id="V" transform="translate(42.000000, 50.000000)">
						<path d="M10.0201712,22.8977246 C14.6733904,17.3487015 17,12.8193013 17,9.30952381 C17,3.49976749 13.1944204,0 8.5,0 C3.80557963,0 2.6352163e-16,3.32900856 0,9.30952381 C0,12.9184641 2.32146626,17.4514999 6.96439878,22.9086314 L6.96439468,22.9086349 C7.6801604,23.7499195 8.94239908,23.8516726 9.78368368,23.1359069 C9.8690474,23.0632794 9.94815507,22.9836048 10.0201712,22.8977246 Z"
							  id="Oval-9-Copy" stroke="#0161C7" stroke-width="2"/>
						<circle id="Oval-Copy" fill="#0161C7" cx="8.5" cy="8.5" r="2.5"/>
					</g>
				</g>
			</g>
		</g>
	</symbol>
	<symbol id="unsupported-zip-code-phone" viewBox="0 0 108 85">
		<defs>
			<linearGradient x1="3.061617e-15%" y1="50%" x2="97.5326849%" y2="50%" id="linearGradient-1">
				<stop stop-color="#FFFFFF" offset="0%"/>
				<stop stop-color="#79ACE2" offset="100%"/>
			</linearGradient>
		</defs>
		<g id="in-store---phone-repair" stroke="none" stroke-width="1" fill="none" fill-rule="evenodd">
			<g id="unsupported-zip-code">
				<g id="Phone-icon" transform="translate(-2.000000, 0.000000)">
					<g>
						<rect id="Rectangle-2-Copy" fill="url(#linearGradient-1)" opacity="0.1" x="0" y="6" width="75"
							  height="73"/>
						<g id="Phone-Copy" transform="translate(34.660156, 0.000000)" fill="#0161C7">
							<path d="M37.0810811,0 L4.91891892,0 C2.17567568,0 0,2.16981132 0,4.90566038 L0,80.0943396 C0,82.8301887 2.17567568,85 4.91891892,85 L37.0810811,85 C39.8243243,85 42,82.8301887 42,80.0943396 L42,4.90566038 C42,2.16981132 39.8243243,0 37.0810811,0 Z M17,3.45454545 C17,3.18181818 17.1935484,3 17.483871,3 L25.516129,3 C25.8064516,3 26,3.18181818 26,3.45454545 L26,3.54545455 C26,3.81818182 25.8064516,4 25.516129,4 L17.483871,4 C17.1935484,4 17,3.81818182 17,3.54545455 L17,3.45454545 Z M7.05263158,3 C7.57894737,3 8,3.44444444 8,4 C8,4.55555556 7.57894737,5 7.05263158,5 C6.52631579,5 6,4.55555556 6,4 C6,3.44444444 6.52631579,3 7.05263158,3 Z M1.91992188,6.43554688 L39.9199219,6.43554688 L39.9199219,79.2319336 L1.91992188,79.2319336 L1.91992188,6.43554688 Z"
								  id="Shape" fill-rule="nonzero"/>
							<g id="Group-4" transform="translate(13.000000, 45.000000)">
								<circle id="Oval-Copy-5" cx="15.5" cy="1.5" r="1.5"/>
								<circle id="Oval-Copy-6" cx="1.5" cy="1.5" r="1.5"/>
								<circle id="Oval" cx="8" cy="15" r="6"/>
							</g>
						</g>
					</g>
				</g>
			</g>
		</g>
	</symbol>
	<symbol id="invalid-input" viewBox="0 0 19 19">
		<g id="icons" stroke="none" stroke-width="1" fill="none" fill-rule="evenodd"
		   transform="translate(-128.000000, -71.000000)">
			<g id="!-copy-3" transform="translate(128.000000, 71.000000)">
				<circle id="Oval-3-Copy" fill="#F44545" cx="9.5" cy="9.5" r="9.5"/>
				<path d="M10.458,4.074 L10.01,10.976 L8.652,10.976 L8.204,4.074 L10.458,4.074 Z M8.232,13.006 C8.232,12.39 8.722,11.886 9.324,11.886 C9.94,11.886 10.444,12.39 10.444,13.006 C10.444,13.622 9.94,14.112 9.324,14.112 C8.722,14.112 8.232,13.622 8.232,13.006 Z"
					  id="!-copy" fill="#FFFFFF"/>
			</g>
		</g>
	</symbol>
	<symbol id="valid-input" viewBox="0 0 19 19">
		<g id="icons" stroke="none" stroke-width="1" fill="none" fill-rule="evenodd"
		   transform="translate(-163.000000, -71.000000)">
			<g id="v" transform="translate(163.000000, 71.000000)">
				<circle id="Oval-3-Copy-5" fill="#12FFCD" cx="9.5" cy="9.5" r="9.5"/>
				<g id="v's-copy-3" transform="translate(5.000000, 7.000000)" stroke="#FFFFFF" stroke-linecap="round"
				   stroke-linejoin="round" stroke-width="2">
					<polyline id="v" points="0 3.16268347 3.30322266 6 9 0"/>
				</g>
			</g>
		</g>
	</symbol>
</svg>
